<svg xmlns="http://www.w3.org/2000/svg" viewBox="0 0 500 500"><g id="freepik--background-complete--inject-13"><g><g><g><path d="M443.92,333.19h-180.75c-3.23,0-5.86-2.63-5.86-5.86V64.06c0-3.23,2.63-5.86,5.86-5.86h180.75c3.23,0,5.86,2.63,5.86,5.86V327.33c0,3.23-2.63,5.86-5.86,5.86ZM263.17,58.44c-3.09,0-5.61,2.52-5.61,5.61V327.33c0,3.09,2.52,5.61,5.61,5.61h180.75c3.09,0,5.61-2.52,5.61-5.61V64.06c0-3.09-2.52-5.61-5.61-5.61h-180.75Z" style="fill:#e0e0e0;"></path><path d="M235.49,333.19H54.75c-3.23,0-5.86-2.63-5.86-5.86V64.06c0-3.23,2.63-5.86,5.86-5.86H235.49c3.23,0,5.86,2.63,5.86,5.86V327.33c0,3.23-2.63,5.86-5.86,5.86ZM54.75,58.44c-3.09,0-5.61,2.52-5.61,5.61V327.33c0,3.09,2.52,5.61,5.61,5.61H235.49c3.09,0,5.61-2.52,5.61-5.61V64.06c0-3.09-2.52-5.61-5.61-5.61H54.75Z" style="fill:#e0e0e0;"></path></g><rect x="0" y="394.26" width="500" height=".25" style="fill:#e0e0e0;"></rect></g><rect x="51.67" y="408.52" width="16.06" height=".25" style="fill:#e0e0e0;"></rect><rect x="170.35" y="405.82" width="53.53" height=".25" style="fill:#e0e0e0;"></rect><rect x="68.73" y="417.82" width="36.25" height=".25" style="fill:#e0e0e0;"></rect><rect x="378.35" y="405.68" width="43.19" height=".25" style="fill:#e0e0e0;"></rect><rect x="430.45" y="405.68" width="6.33" height=".25" style="fill:#e0e0e0;"></rect><rect x="316.21" y="411.92" width="53.89" height=".25" style="fill:#e0e0e0;"></rect></g><g id="freepik--freepik--Flag--inject-2--inject-13"><path d="M84.17,65.68V360.54c0,23.44-24.83,31.46-27.39,32.23h0c11.96-15.05,6.14-34.43,6.14-34.43h0c-18.85-7.75-29.77-31.16-33.37-47.2-2.1-9.57,6.79-35.93,15.95-60.1,6.22-16.41,12.61-31.8,15.75-40.23,6.79-18.26-8.23-39.48-6.9-64.88,.2-3.77,.76-7.51,1.69-11.16,7.83-30.42,28.14-69.09,28.14-69.09Z" style="fill:#e0e0e0;"></path><rect x="81.98" y="61.18" width="7.13" height="361.1" style="fill:#ebebeb;"></rect><path d="M90.18,61.18c0,2.56-2.06,4.65-4.62,4.66-2.56,0-4.65-2.06-4.66-4.62s2.06-4.65,4.62-4.66h.03c2.55,0,4.62,2.07,4.62,4.62h0Z" style="fill:#ebebeb;"></path></g><g><rect x="322.7" y="80.07" width="100.7" height="130.08" style="fill:#e0e0e0;"></rect><rect x="331.42" y="88.54" width="83.26" height="113.15" style="fill:#f5f5f5;"></rect><rect x="345.88" y="98.7" width="54.34" height="6.17" style="fill:#e0e0e0;"></rect><path d="M382.93,126.69c0,5.5-4.5,9.96-10.02,9.88-5.25-.07-9.66-4.49-9.74-9.74-.08-5.52,4.38-10.02,9.88-10.02h0c5.46,0,9.88,4.42,9.88,9.88Z" style="fill:#e0e0e0;"></path><rect x="355.14" y="149.74" width="35.81" height="5.76" style="fill:#e0e0e0;"></rect><rect x="345.06" y="163.33" width="55.98" height="4.63" style="fill:#e0e0e0;"></rect><rect x="350.62" y="177.99" width="44.87" height="9.24" style="fill:#e0e0e0;"></rect></g><g><rect x="117.49" y="80.07" width="100.7" height="130.08" style="fill:#e0e0e0;"></rect><rect x="126.21" y="88.54" width="83.26" height="113.15" style="fill:#f5f5f5;"></rect><rect x="140.67" y="98.7" width="54.34" height="6.17" style="fill:#e0e0e0;"></rect><path d="M177.71,126.69c0,5.5-4.5,9.96-10.02,9.88-5.25-.07-9.66-4.49-9.74-9.74-.08-5.52,4.38-10.02,9.88-10.02h0c5.46,0,9.88,4.42,9.88,9.88Z" style="fill:#e0e0e0;"></path><rect x="149.93" y="149.74" width="35.81" height="5.76" style="fill:#e0e0e0;"></rect><rect x="139.84" y="163.33" width="55.98" height="4.63" style="fill:#e0e0e0;"></rect><rect x="145.4" y="177.99" width="44.87" height="9.24" style="fill:#e0e0e0;"></rect></g></g><g id="freepik--Shadow--inject-13"><path d="M478.59,443.81c0,3.39-102.34,6.13-228.59,6.13s-228.59-2.75-228.59-6.13,102.34-6.13,228.59-6.13,228.59,2.75,228.59,6.13Z" style="fill:#f5f5f5;"></path></g><g id="freepik--Character--inject-13"><g><g><g><path d="M153,256.55s8.02-16.65,6.2-20.2c-1.82-3.55-4.79-5.24-4.79-5.24,0,0-3.91-30.73-8.27-29.6-2.36,.61-2.63,8.32-.58,22.82,0,0-6.62-4.14-8.2,.82,0,0-5.26-2.75-7.73,2.81,0,0-5.26,.94-5.74,5.25-.48,4.31,1.89,21.01,6.11,28.49,1.28,2.26,2.58,3.11,5.25,3.42,0,0-5.32,15.99-5.44,16.84l24.09-8.51-.9-16.9Z" style="fill:#eeb8ae;"></path><path d="M143.09,252.58c-.07,0-.15-.03-.2-.1-1.52-1.95-1.87-4.83-.93-7.53,.82-2.34,3.14-5.44,4.99-7.21-3.38-.66-7.71-3.95-8.15-7.13-.27-1.92,.4-3.02,2.16-3.56,1.18-.36,4.54,.6,5.39,.91,1.39,.5,2.96,1.13,4.49,1.74,1.52,.61,3.09,1.24,4.47,1.74,.13,.05,.2,.19,.15,.32-.05,.13-.19,.2-.32,.15-1.39-.5-2.97-1.13-4.49-1.75-1.52-.61-3.09-1.24-4.47-1.74-1.1-.4-4.16-1.18-5.08-.9-1.54,.47-2.05,1.32-1.81,3.01,.43,3.06,5,6.41,8.23,6.78,.1,.01,.18,.08,.21,.17s0,.2-.07,.26c-1.87,1.65-4.42,5-5.24,7.36-.89,2.54-.56,5.25,.85,7.06,.08,.11,.07,.27-.04,.35-.05,.04-.1,.05-.15,.05Z" style="opacity:.3;"></path><path d="M128.38,242.36c-.18,0-.35-.02-.54-.06-.93-.2-1.77-.95-2.24-2.01-.41-.92-.51-1.92-.62-2.89-.01-.14,.09-.26,.22-.27,.13-.02,.26,.09,.27,.22,.1,.93,.2,1.89,.58,2.74,.41,.91,1.11,1.56,1.89,1.72,1.41,.3,2.71-.92,3.33-2.17,.89-1.81,.08-5.96,.07-6-.03-.13,.05-.26,.18-.29,.13-.04,.26,.04,.3,.16,.01,.03,1.04,3.1,2.17,4.15,1.22,1.12,2.89,1.57,4.27,1.14,1.45-.45,2.59-3.09,2.27-4.53-.03-.14,.06-.27,.19-.3,.14-.03,.27,.06,.3,.19,.37,1.68-.88,4.58-2.61,5.12-1.54,.48-3.41,0-4.75-1.25-.59-.54-1.13-1.53-1.54-2.43,.12,1.39,.14,3.17-.4,4.26-.62,1.27-1.89,2.5-3.34,2.5Z" style="opacity:.3;"></path></g><path d="M190.3,265.48s-4.09-4.75-7.59-2.39c-3.51,2.36-3.25,8.25-3.25,8.25l-13.84,33.06-5.01-42.77-55.53,22.67s15.38,98.5,33.61,106.7c13.57,6.11,58.85-28.74,58.85-28.74l-7.23-96.78Z" style="fill:#263238;"></path><path d="M165.62,304.4c-.1,7.53-.74,15.04-.94,22.57-.09,3.77-.16,7.56-.73,11.29-.23,1.32-.73,4.22-2.65,3.65-.36-.19-.56-.5-.71-.81-.68-1.82-.47-3.79-.56-5.68-.05-5.03,.37-10.07,1.26-15.01-.7,4.97-.98,9.99-.86,15,.13,1.82-.07,3.79,.57,5.5,.68,1.48,1.83,.06,2.07-.93,1.03-4.24,.98-8.68,1.17-13.03,.23-7.53,1.04-15.03,1.39-22.55h0Z" style="fill:#fff; opacity:.3;"></path></g><path d="M302.54,200.86c-2.49,6.08-7.57,10.41-12.59,12.37-7.56,2.96-9.56-5.2-8.2-12.78,1.23-6.83,3.98-15.03,11.92-14.75,7.83,.28,11.72,8.21,8.87,15.16Z" style="fill:#eeb8ae;"></path><path d="M285.86,200.2s-.03,0-.05,0c-.14-.03-.22-.16-.2-.29,.43-2.11,1.41-4.09,2.84-5.71,.95-1.08,2.52-2.44,4.56-2.76,1.97-.3,3.93,.56,4.79,2.1,.07,.12,.02,.27-.1,.34-.12,.07-.27,.02-.34-.1-.75-1.36-2.51-2.12-4.27-1.85-1.89,.29-3.36,1.57-4.26,2.59-1.37,1.55-2.31,3.45-2.72,5.48-.02,.12-.13,.2-.25,.2Z" style="fill:#263238; opacity:.2;"></path><polygon points="299.07 369.24 333.54 368.68 331.53 402.69 296.93 403.19 299.07 369.24" style="opacity:.3;"></polygon><g><g><path d="M246.73,251.28v.02c1.34,.13,2.41,2.2,2.41,4.76s-1.07,4.63-2.41,4.76v.02h-33.82v-9.56h33.82Z" style="fill:#263238;"></path><path d="M246.73,251.28v.02c1.34,.13,2.41,2.2,2.41,4.76s-1.07,4.63-2.41,4.76v.02h-33.82v-9.56h33.82Z" style="fill:#fff; opacity:.6;"></path><path d="M210.37,256.06c0,2.64,1.14,4.78,2.54,4.78s2.54-2.14,2.54-4.78-1.14-4.78-2.54-4.78-2.54,2.14-2.54,4.78Z" style="fill:#263238;"></path><path d="M210.37,256.06c0,2.64,1.14,4.78,2.54,4.78s2.54-2.14,2.54-4.78-1.14-4.78-2.54-4.78-2.54,2.14-2.54,4.78Z" style="fill:#fff; opacity:.8;"></path></g><g><path d="M257.53,156.38v.02c1.34,.13,2.41,2.2,2.41,4.76s-1.07,4.63-2.41,4.76v.02h-33.82v-9.56h33.82Z" style="fill:#263238;"></path><path d="M257.53,156.38v.02c1.34,.13,2.41,2.2,2.41,4.76s-1.07,4.63-2.41,4.76v.02h-33.82v-9.56h33.82Z" style="fill:#fff; opacity:.6;"></path><path d="M221.17,161.16c0,2.64,1.14,4.78,2.54,4.78s2.54-2.14,2.54-4.78-1.14-4.78-2.54-4.78-2.54,2.14-2.54,4.78Z" style="fill:#263238;"></path><path d="M221.17,161.16c0,2.64,1.14,4.78,2.54,4.78s2.54-2.14,2.54-4.78-1.14-4.78-2.54-4.78-2.54,2.14-2.54,4.78Z" style="fill:#fff; opacity:.8;"></path></g><g><path d="M252.87,175.53v.02c1.34,.13,2.41,2.2,2.41,4.76s-1.07,4.63-2.41,4.76v.02h-33.82v-9.56h33.82Z" style="fill:#263238;"></path><path d="M252.87,175.53v.02c1.34,.13,2.41,2.2,2.41,4.76s-1.07,4.63-2.41,4.76v.02h-33.82v-9.56h33.82Z" style="fill:#fff; opacity:.6;"></path><path d="M216.51,180.31c0,2.64,1.14,4.78,2.54,4.78s2.54-2.14,2.54-4.78-1.14-4.78-2.54-4.78-2.54,2.14-2.54,4.78Z" style="fill:#263238;"></path><path d="M216.51,180.31c0,2.64,1.14,4.78,2.54,4.78s2.54-2.14,2.54-4.78-1.14-4.78-2.54-4.78-2.54,2.14-2.54,4.78Z" style="fill:#fff; opacity:.8;"></path></g><g><path d="M251.78,194.69v.02c1.34,.13,2.41,2.2,2.41,4.76s-1.07,4.63-2.41,4.76v.02h-33.82v-9.56h33.82Z" style="fill:#263238;"></path><path d="M251.78,194.69v.02c1.34,.13,2.41,2.2,2.41,4.76s-1.07,4.63-2.41,4.76v.02h-33.82v-9.56h33.82Z" style="fill:#fff; opacity:.6;"></path><path d="M215.43,199.47c0,2.64,1.14,4.78,2.54,4.78s2.54-2.14,2.54-4.78-1.14-4.78-2.54-4.78-2.54,2.14-2.54,4.78Z" style="fill:#263238;"></path><path d="M215.43,199.47c0,2.64,1.14,4.78,2.54,4.78s2.54-2.14,2.54-4.78-1.14-4.78-2.54-4.78-2.54,2.14-2.54,4.78Z" style="fill:#fff; opacity:.8;"></path></g><g><path d="M252.87,213.81v.02c1.34,.13,2.41,2.2,2.41,4.76s-1.07,4.63-2.41,4.76v.02h-33.82v-9.56h33.82Z" style="fill:#263238;"></path><path d="M252.87,213.81v.02c1.34,.13,2.41,2.2,2.41,4.76s-1.07,4.63-2.41,4.76v.02h-33.82v-9.56h33.82Z" style="fill:#fff; opacity:.6;"></path><path d="M216.51,218.59c0,2.64,1.14,4.78,2.54,4.78s2.54-2.14,2.54-4.78-1.14-4.78-2.54-4.78-2.54,2.14-2.54,4.78Z" style="fill:#263238;"></path><path d="M216.51,218.59c0,2.64,1.14,4.78,2.54,4.78s2.54-2.14,2.54-4.78-1.14-4.78-2.54-4.78-2.54,2.14-2.54,4.78Z" style="fill:#fff; opacity:.8;"></path></g><g><path d="M254.05,165.94v.02c1.34,.13,2.41,2.2,2.41,4.76s-1.07,4.63-2.41,4.76v.02h-33.82v-9.56h33.82Z" style="fill:#263238;"></path><path d="M254.05,165.94v.02c1.34,.13,2.41,2.2,2.41,4.76s-1.07,4.63-2.41,4.76v.02h-33.82v-9.56h33.82Z" style="fill:#fff; opacity:.5;"></path><path d="M217.69,170.72c0,2.64,1.14,4.78,2.54,4.78s2.54-2.14,2.54-4.78-1.14-4.78-2.54-4.78-2.54,2.14-2.54,4.78Z" style="fill:#263238;"></path><path d="M217.69,170.72c0,2.64,1.14,4.78,2.54,4.78s2.54-2.14,2.54-4.78-1.14-4.78-2.54-4.78-2.54,2.14-2.54,4.78Z" style="fill:#fff; opacity:.8;"></path></g><g><path d="M251.78,185.18v.02c1.34,.13,2.41,2.2,2.41,4.76s-1.07,4.63-2.41,4.76v.02h-33.82v-9.56h33.82Z" style="fill:#263238;"></path><path d="M251.78,185.18v.02c1.34,.13,2.41,2.2,2.41,4.76s-1.07,4.63-2.41,4.76v.02h-33.82v-9.56h33.82Z" style="fill:#fff; opacity:.5;"></path><path d="M215.43,189.96c0,2.64,1.14,4.78,2.54,4.78s2.54-2.14,2.54-4.78-1.14-4.78-2.54-4.78-2.54,2.14-2.54,4.78Z" style="fill:#263238;"></path><path d="M215.43,189.96c0,2.64,1.14,4.78,2.54,4.78s2.54-2.14,2.54-4.78-1.14-4.78-2.54-4.78-2.54,2.14-2.54,4.78Z" style="fill:#fff; opacity:.8;"></path></g><g><path d="M251.78,204.25v.02c1.34,.13,2.41,2.2,2.41,4.76s-1.07,4.63-2.41,4.76v.02h-33.82v-9.56h33.82Z" style="fill:#263238;"></path><path d="M251.78,204.25v.02c1.34,.13,2.41,2.2,2.41,4.76s-1.07,4.63-2.41,4.76v.02h-33.82v-9.56h33.82Z" style="fill:#fff; opacity:.5;"></path><path d="M215.43,209.03c0,2.64,1.14,4.78,2.54,4.78s2.54-2.14,2.54-4.78-1.14-4.78-2.54-4.78-2.54,2.14-2.54,4.78Z" style="fill:#263238;"></path><path d="M215.43,209.03c0,2.64,1.14,4.78,2.54,4.78s2.54-2.14,2.54-4.78-1.14-4.78-2.54-4.78-2.54,2.14-2.54,4.78Z" style="fill:#fff; opacity:.8;"></path></g><g><path d="M252.3,223.37v.02c1.34,.13,2.41,2.2,2.41,4.76s-1.07,4.63-2.41,4.76v.02h-33.82v-9.56h33.82Z" style="fill:#263238;"></path><path d="M252.3,223.37v.02c1.34,.13,2.41,2.2,2.41,4.76s-1.07,4.63-2.41,4.76v.02h-33.82v-9.56h33.82Z" style="fill:#fff; opacity:.5;"></path><path d="M215.95,228.15c0,2.64,1.14,4.78,2.54,4.78s2.54-2.14,2.54-4.78-1.14-4.78-2.54-4.78-2.54,2.14-2.54,4.78Z" style="fill:#263238;"></path><path d="M215.95,228.15c0,2.64,1.14,4.78,2.54,4.78s2.54-2.14,2.54-4.78-1.14-4.78-2.54-4.78-2.54,2.14-2.54,4.78Z" style="fill:#fff; opacity:.8;"></path></g><g><path d="M247.84,241.72v.02c1.34,.13,2.41,2.2,2.41,4.76s-1.07,4.63-2.41,4.76v.02h-33.82v-9.56h33.82Z" style="fill:#263238;"></path><path d="M247.84,241.72v.02c1.34,.13,2.41,2.2,2.41,4.76s-1.07,4.63-2.41,4.76v.02h-33.82v-9.56h33.82Z" style="fill:#fff; opacity:.5;"></path><path d="M211.49,246.5c0,2.64,1.14,4.78,2.54,4.78s2.54-2.14,2.54-4.78-1.14-4.78-2.54-4.78-2.54,2.14-2.54,4.78Z" style="fill:#263238;"></path><path d="M211.49,246.5c0,2.64,1.14,4.78,2.54,4.78s2.54-2.14,2.54-4.78-1.14-4.78-2.54-4.78-2.54,2.14-2.54,4.78Z" style="fill:#fff; opacity:.8;"></path></g><g><path d="M250.38,232.97v.02c1.34,.13,2.41,2.2,2.41,4.76s-1.07,4.63-2.41,4.76v.02h-33.82v-9.56h33.82Z" style="fill:#263238;"></path><path d="M250.38,232.97v.02c1.34,.13,2.41,2.2,2.41,4.76s-1.07,4.63-2.41,4.76v.02h-33.82v-9.56h33.82Z" style="fill:#fff; opacity:.6;"></path><path d="M214.02,237.75c0,2.64,1.14,4.78,2.54,4.78s2.54-2.14,2.54-4.78-1.14-4.78-2.54-4.78-2.54,2.14-2.54,4.78Z" style="fill:#263238;"></path><path d="M214.02,237.75c0,2.64,1.14,4.78,2.54,4.78s2.54-2.14,2.54-4.78-1.14-4.78-2.54-4.78-2.54,2.14-2.54,4.78Z" style="fill:#fff; opacity:.8;"></path></g><path d="M284.05,253.3s-2.22-15.93,7.1-43.54c0-.03-1.44-.75-1.44-.78,1.29-3.86,2.63-7.42,3.89-10.51,.03-.09,.03-.12,.03-.12l-39.28,21.97c.51,8.98-3.45,26.12-5.68,33.33,0,0-5.13,9.26,12.42,10.61,12.83,.98,22.96-10.97,22.96-10.97Z" style="fill:#eeb8ae;"></path><path d="M253.15,232.87l22.23-4c-2.3,6.76-8.71,14.61-24.05,14.61,0,0,1.86-7.6,1.83-10.6Z" style="opacity:.2;"></path><path d="M294.74,179.79c-3.63,24.14-5.2,37.82-18.57,49.08-20.11,16.94-48.46,3.51-52.12-21.3-3.29-22.33,3.2-58.05,27.84-65.38,24.27-7.22,46.48,13.46,42.85,37.6Z" style="fill:#eeb8ae;"></path><path d="M277.88,161.94l29.88,1.25s-.16-25.29-33.22-24.79c0,0-8.12-8.69-27.36-1.06-19.06,7.56-15.36,22.09-15.36,22.09,0,0,4.05-6.33,12.17-7.93,10.15-2,12.47,1.11,12.47,1.11,0,0,15.21-4.72,21.43,9.34Z" style="fill:#263238;"></path><path d="M277.88,161.94l29.88,1.25s-.16-25.29-33.22-24.79c0,0-8.12-8.69-27.36-1.06-19.06,7.56-15.36,22.09-15.36,22.09,0,0,4.05-6.33,12.17-7.93,10.15-2,12.47,1.11,12.47,1.11,0,0,15.21-4.72,21.43,9.34Z" style="fill:#fff; opacity:.6;"></path><path d="M263.03,183.83c-.22,2.48-1.71,4.37-3.34,4.21-1.62-.16-2.76-2.3-2.54-4.79,.22-2.48,1.71-4.37,3.34-4.21,1.62,.16,2.76,2.3,2.54,4.79Z" style="fill:#263238;"></path><path d="M238.83,182.06c-.22,2.48-1.71,4.37-3.34,4.21-1.62-.16-2.76-2.3-2.54-4.79,.22-2.48,1.71-4.37,3.34-4.21,1.62,.16,2.76,2.3,2.54,4.79Z" style="fill:#263238;"></path><path d="M243.03,181.38s-8.95,11.65-11.92,16.45c3.18,3.43,9.26,2.51,9.26,2.51l2.65-18.96Z" style="fill:#d16f62;"></path><path d="M267.91,172.3c-.3,.27-.74,.38-1.16,.25-4.98-1.6-8.36,1.05-8.4,1.07-.5,.4-1.24,.32-1.65-.17-.41-.5-.33-1.23,.17-1.63,.18-.14,4.42-3.46,10.59-1.47,.62,.2,.95,.85,.76,1.46-.06,.2-.18,.36-.32,.5Z" style="fill:#263238;"></path><path d="M267.91,172.3c-.3,.27-.74,.38-1.16,.25-4.98-1.6-8.36,1.05-8.4,1.07-.5,.4-1.24,.32-1.65-.17-.41-.5-.33-1.23,.17-1.63,.18-.14,4.42-3.46,10.59-1.47,.62,.2,.95,.85,.76,1.46-.06,.2-.18,.36-.32,.5Z" style="fill:#fff; opacity:.8;"></path><g><path d="M229.51,169.29c-.13-.18-.21-.4-.22-.64-.02-.65,.47-1.19,1.11-1.22,6.43-.28,9.54,4.09,9.7,4.27,.37,.53,.25,1.26-.28,1.64-.52,.38-1.24,.26-1.61-.26-.12-.19-2.56-3.53-7.72-3.3-.4,.02-.77-.18-.99-.48Z" style="fill:#263238;"></path><path d="M229.51,169.29c-.13-.18-.21-.4-.22-.64-.02-.65,.47-1.19,1.11-1.22,6.43-.28,9.54,4.09,9.7,4.27,.37,.53,.25,1.26-.28,1.64-.52,.38-1.24,.26-1.61-.26-.12-.19-2.56-3.53-7.72-3.3-.4,.02-.77-.18-.99-.48Z" style="fill:#fff; opacity:.8;"></path></g><g><g style="opacity:.2;"><path d="M275.27,182.54c-1.53,1.83-3.76,2.05-5.43,.54l5.43-.54Z"></path></g><g style="opacity:.2;"><path d="M273.94,187.85c-2.34,.45-4.21-.8-4.54-3.02l4.54,3.02Z"></path></g></g><g><g style="opacity:.2;"><path d="M225.39,178.12c.47,1.92,2.04,2.9,3.83,2.39l-3.83-2.39Z"></path></g><g style="opacity:.2;"><path d="M224.43,182.55c1.58,1.19,3.42,.95,4.48-.58l-4.48,.58Z"></path></g></g><path d="M263.78,204.08c-.14,0-.25-.11-.25-.24-.05-2.38-2.01-4.62-4.36-4.99-.14-.02-.23-.15-.21-.29,.02-.14,.14-.23,.29-.21,2.62,.41,4.73,2.82,4.79,5.47,0,.14-.11,.25-.24,.26h0Z" style="fill:#263238; opacity:.2;"></path><path d="M274.85,138.99c-6.97,2.15-13.1,6.43-17.51,12.24,3.81-6.21,10.38-10.79,17.51-12.24h0Z" style="opacity:.3;"></path><path d="M244.74,206.21c2.17-1.38,6.65-1.38,8.98-.28,2.33,1.09,3.94,2.31,5.49,4.37-4.48,1.41-10.31,3.67-14.79,5.08-3.41-5.08-1.85-7.78,.32-9.17Z" style="fill:#263238;"></path><path d="M257.37,208.33c-.15-.12-6.04-.2-9.39,2.16-3.29,2.31-3.56,4.89-3.56,4.89l14.79-5.08s-.97-1.26-1.84-1.97Z" style="fill:#d16f62;"></path><path d="M244.74,206.21c1.86-1.19,5.41-1.35,7.86-.68-.26,.01-7.6,3.16-8.58,3.29-.44,.06-.95,.04-1.39,0,.36-1.17,1.18-2.01,2.11-2.6Z" style="fill:#fff;"></path></g><g><path d="M288.48,254.77c-29.59-3.85-44.69-1.29-52.98-.78-1.16,.07-19.31,14.87-19.54,16.01-8.47,46.18-10.95,77.16-16.4,128.5l119.53,4.68,6.7-138.57c-13.65-2.74-25.38-8.3-37.31-9.85Z" style="fill:#fff;"></path><polygon points="289.72 255.41 284.39 239.53 265.82 249.39 252 239.53 242.55 253.32 264.96 270 289.72 255.41" style="fill:#fff;"></polygon><path d="M347.18,268.65l.16,.06-.16-.06Z" style="fill:#263238;"></path><path d="M347.16,268.64h0Z" style="fill:#263238;"></path><path d="M240.05,252.68l28.53,66.61,22.35-65.13s43.17,9.89,54.29,14.56c-6.32,40.87-16.73,158.8-16.98,158.8-.32,0-153.5,0-153.5,0l11.59-165.36,53.72-9.48Z" style="fill:#263238;"></path><path d="M347.34,268.71h0Z" style="fill:#263238;"></path><path d="M347.34,268.71s.03,.01,0,0h0Z" style="fill:#263238;"></path><path d="M334.92,322.11c-42.93-.81-88.75-.13-131.6-2.17l-8.76-.48,8.77,.35c42.85,1.58,88.69,.9,131.6,2.3h0Z" style="fill:#fff; opacity:.3;"></path><path d="M305.43,326.58c1.24,4.3,2.15,8.67,2.72,13.11-1.24-4.3-2.15-8.67-2.72-13.11h0Z" style="fill:#fff; opacity:.3;"></path><path d="M299.61,326.33c.16,2.9-.02,5.79-.55,8.65-.16-2.9,.02-5.79,.55-8.65h0Z" style="fill:#fff; opacity:.3;"></path><path d="M268.02,253.55c-.49,0-5.03-.12-5.03-.12l-7.37,9.62,4.41,9h10.77l4.28-6.93-7.06-11.57Z" style="fill:#CBA76F;"></path><path d="M270.8,272.05l7.14,19.45-9.37,27.79c-1.08,.3-14.19-33.08-14.03-32.76,.16,.33,5.48-15.27,5.48-15.27l10.77,.79Z" style="fill:#CBA76F;"></path><path d="M278.3,270.4c.73-.15,11.5-13.63,11.66-14.03l-2.56,6.43-9.36,11.65s-11.53-23.2-11.9-23.99l12.16,19.93Z" style="opacity:.3;"></path><path d="M265.17,250.47c-.08,.32-11.27,14.81-11.27,14.81,0,0-10.96-10.44-11.04-10.51-.08-.07,11.15,13.57,11.15,13.57l11.15-17.88Z" style="opacity:.3;"></path><path d="M188.82,270c-3.25,33.33-7.24,70.68-11.1,103.94,3.25-33.33,7.24-70.68,11.1-103.94h0Z" style="fill:#fff; opacity:.3;"></path></g><g><path d="M304.68,400.1c-.01,.17-24.4,3.06-24.4,3.06l-1.86,22.97,24.03,2.1,2.22-28.13Z" style="fill:#eeb8ae;"></path><path d="M344.13,268.87s5.67-5.15,6.26,6.75h0s47.67,100.27,51.36,110.24c6.56,17.75-2.99,39.29-17.56,40.9-14.57,1.61-83.09,.16-83.09,.16v-48.98l38.21,.53-12.95-20.5,17.78-89.11Z" style="fill:#263238;"></path><path d="M340.84,377.95c6.11,.8,12.4,1.05,18.26,3.15,1.89,.79,6.71,2.42,4.78,5.16-1.34,1.17-3.24,.38-4.67,0-5.94-1.73-11.76-3.86-17.4-6.4,3.83,1.51,7.71,2.9,11.62,4.16,1.96,.62,3.92,1.24,5.9,1.8,1.35,.34,3.02,1.06,4.19,.1,1.03-1.3-.64-2.54-1.81-3.13-6.41-3.37-13.87-3.57-20.88-4.84h0Z" style="fill:#fff; opacity:.3;"></path><path d="M346,372.01c6.64-.58,13.41-.1,19.89,1.43-6.62-.85-13.22-1.33-19.89-1.43h0Z" style="fill:#fff; opacity:.3;"></path><path d="M343.68,271.26c-2.94,31.24-6.58,66.25-10.14,97.42,2.94-31.24,6.59-66.25,10.14-97.42h0Z" style="fill:#fff; opacity:.3;"></path><g id="freepik--freepik--hammer-of-law--inject-2--inject-13"><path d="M277.8,424.3h0c3.26-.08,6.23-1.9,7.78-4.77l.08-.39-30.35-46.42-7.97,5.14,30.45,46.44Z" style="fill:#CBA76F;"></path><rect x="245.56" y="369.72" width="11.97" height="11.52" transform="translate(-163.31 196.17) rotate(-32.81)" style="fill:#CBA76F;"></rect><rect x="245.56" y="369.72" width="11.97" height="11.52" transform="translate(-163.31 196.17) rotate(-32.81)" style="fill:#263238; isolation:isolate; opacity:.7;"></rect><rect x="227.88" y="357.18" width="36.03" height="19.03" transform="translate(-159.45 191.7) rotate(-32.81)" style="fill:#CBA76F;"></rect><rect x="227.88" y="357.18" width="36.03" height="19.03" transform="translate(-159.45 191.7) rotate(-32.81)" style="fill:#263238; isolation:isolate; opacity:.3;"></rect><rect x="255.66" y="345.08" width="10.96" height="23.52" rx="2.66" ry="2.66" transform="translate(-151.69 198.39) rotate(-32.81)" style="fill:#CBA76F;"></rect><rect x="225.15" y="364.77" width="10.96" height="23.52" rx="2.66" ry="2.66" transform="translate(-167.22 185) rotate(-32.8)" style="fill:#CBA76F;"></rect><g style="opacity:.5;"><rect x="255.66" y="345.08" width="10.96" height="23.52" rx="2.66" ry="2.66" transform="translate(-151.69 198.39) rotate(-32.81)" style="fill:#263238;"></rect><rect x="225.15" y="364.77" width="10.96" height="23.52" rx="2.66" ry="2.66" transform="translate(-167.22 185) rotate(-32.8)" style="fill:#263238;"></rect></g></g><path d="M268.28,394.46s-18.16-1.55-18.76,.29c-.6,1.85-.88,7.94,1.97,11.13,0,0-1.6,5.59,2.92,8.41l3.08,1.4s-4.9,3.7,1.6,8.66c6.49,4.97,14.97,3.95,21.48,2.13,6.8-1.9,6.98-2.38,6.98-2.38,0,0,14.8-18.15-1.91-30.33-5.34-3.89-22.21-10.07-22.89-9.84l5.53,10.52Z" style="fill:#eeb8ae;"></path></g><g><path d="M310.3,158.96v.02c1.34,.13,2.41,2.2,2.41,4.76s-1.07,4.63-2.41,4.76v.02h-33.82v-9.56h33.82Z" style="fill:#263238;"></path><path d="M310.3,158.96v.02c1.34,.13,2.41,2.2,2.41,4.76s-1.07,4.63-2.41,4.76v.02h-33.82v-9.56h33.82Z" style="fill:#fff; opacity:.5;"></path><path d="M273.94,163.74c0,2.64,1.14,4.78,2.54,4.78s2.54-2.14,2.54-4.78-1.14-4.78-2.54-4.78-2.54,2.14-2.54,4.78Z" style="fill:#263238;"></path><path d="M273.94,163.74c0,2.64,1.14,4.78,2.54,4.78s2.54-2.14,2.54-4.78-1.14-4.78-2.54-4.78-2.54,2.14-2.54,4.78Z" style="fill:#fff; opacity:.8;"></path></g><g><path d="M311.57,168.52v.02c1.34,.13,2.41,2.2,2.41,4.76s-1.07,4.63-2.41,4.76v.02h-33.82v-9.56h33.82Z" style="fill:#263238;"></path><path d="M311.57,168.52v.02c1.34,.13,2.41,2.2,2.41,4.76s-1.07,4.63-2.41,4.76v.02h-33.82v-9.56h33.82Z" style="fill:#fff; opacity:.6;"></path><path d="M275.21,173.3c0,2.64,1.14,4.78,2.54,4.78s2.54-2.14,2.54-4.78-1.14-4.78-2.54-4.78-2.54,2.14-2.54,4.78Z" style="fill:#263238;"></path><path d="M275.21,173.3c0,2.64,1.14,4.78,2.54,4.78s2.54-2.14,2.54-4.78-1.14-4.78-2.54-4.78-2.54,2.14-2.54,4.78Z" style="fill:#fff; opacity:.8;"></path></g><g><path d="M312.83,187.67v.02c1.34,.13,2.41,2.2,2.41,4.76s-1.07,4.63-2.41,4.76v.02h-33.82v-9.56h33.82Z" style="fill:#263238;"></path><path d="M312.83,187.67v.02c1.34,.13,2.41,2.2,2.41,4.76s-1.07,4.63-2.41,4.76v.02h-33.82v-9.56h33.82Z" style="fill:#fff; opacity:.6;"></path><path d="M276.48,192.45c0,2.64,1.14,4.78,2.54,4.78s2.54-2.14,2.54-4.78-1.14-4.78-2.54-4.78-2.54,2.14-2.54,4.78Z" style="fill:#263238;"></path><path d="M276.48,192.45c0,2.64,1.14,4.78,2.54,4.78s2.54-2.14,2.54-4.78-1.14-4.78-2.54-4.78-2.54,2.14-2.54,4.78Z" style="fill:#fff; opacity:.8;"></path></g><g><path d="M313.29,206.83v.02c1.34,.13,2.41,2.2,2.41,4.76s-1.07,4.63-2.41,4.76v.02h-33.82v-9.56h33.82Z" style="fill:#263238;"></path><path d="M313.29,206.83v.02c1.34,.13,2.41,2.2,2.41,4.76s-1.07,4.63-2.41,4.76v.02h-33.82v-9.56h33.82Z" style="fill:#fff; opacity:.6;"></path><path d="M276.93,211.61c0,2.64,1.14,4.78,2.54,4.78s2.54-2.14,2.54-4.78-1.14-4.78-2.54-4.78-2.54,2.14-2.54,4.78Z" style="fill:#263238;"></path><path d="M276.93,211.61c0,2.64,1.14,4.78,2.54,4.78s2.54-2.14,2.54-4.78-1.14-4.78-2.54-4.78-2.54,2.14-2.54,4.78Z" style="fill:#fff; opacity:.8;"></path></g><g><path d="M313.52,225.95v.02c1.34,.13,2.41,2.2,2.41,4.76s-1.07,4.63-2.41,4.76v.02h-33.82v-9.56h33.82Z" style="fill:#263238;"></path><path d="M313.52,225.95v.02c1.34,.13,2.41,2.2,2.41,4.76s-1.07,4.63-2.41,4.76v.02h-33.82v-9.56h33.82Z" style="fill:#fff; opacity:.6;"></path><path d="M277.17,230.73c0,2.64,1.14,4.78,2.54,4.78s2.54-2.14,2.54-4.78-1.14-4.78-2.54-4.78-2.54,2.14-2.54,4.78Z" style="fill:#263238;"></path><path d="M277.17,230.73c0,2.64,1.14,4.78,2.54,4.78s2.54-2.14,2.54-4.78-1.14-4.78-2.54-4.78-2.54,2.14-2.54,4.78Z" style="fill:#fff; opacity:.8;"></path></g><g><path d="M312.1,178.08v.02c1.34,.13,2.41,2.2,2.41,4.76s-1.07,4.63-2.41,4.76v.02h-33.82v-9.56h33.82Z" style="fill:#263238;"></path><path d="M312.1,178.08v.02c1.34,.13,2.41,2.2,2.41,4.76s-1.07,4.63-2.41,4.76v.02h-33.82v-9.56h33.82Z" style="fill:#fff; opacity:.5;"></path><path d="M275.75,182.86c0,2.64,1.14,4.78,2.54,4.78s2.54-2.14,2.54-4.78-1.14-4.78-2.54-4.78-2.54,2.14-2.54,4.78Z" style="fill:#263238;"></path><path d="M275.75,182.86c0,2.64,1.14,4.78,2.54,4.78s2.54-2.14,2.54-4.78-1.14-4.78-2.54-4.78-2.54,2.14-2.54,4.78Z" style="fill:#fff; opacity:.8;"></path></g><g><path d="M313.37,197.32v.02c1.34,.13,2.41,2.2,2.41,4.76s-1.07,4.63-2.41,4.76v.02h-33.82v-9.56h33.82Z" style="fill:#263238;"></path><path d="M313.37,197.32v.02c1.34,.13,2.41,2.2,2.41,4.76s-1.07,4.63-2.41,4.76v.02h-33.82v-9.56h33.82Z" style="fill:#fff; opacity:.5;"></path><path d="M277.02,202.1c0,2.64,1.14,4.78,2.54,4.78s2.54-2.14,2.54-4.78-1.14-4.78-2.54-4.78-2.54,2.14-2.54,4.78Z" style="fill:#263238;"></path><path d="M277.02,202.1c0,2.64,1.14,4.78,2.54,4.78s2.54-2.14,2.54-4.78-1.14-4.78-2.54-4.78-2.54,2.14-2.54,4.78Z" style="fill:#fff; opacity:.8;"></path></g><g><path d="M313.5,216.39v.02c1.34,.13,2.41,2.2,2.41,4.76s-1.07,4.63-2.41,4.76v.02h-33.82v-9.56h33.82Z" style="fill:#263238;"></path><path d="M313.5,216.39v.02c1.34,.13,2.41,2.2,2.41,4.76s-1.07,4.63-2.41,4.76v.02h-33.82v-9.56h33.82Z" style="fill:#fff; opacity:.5;"></path><path d="M277.14,221.17c0,2.64,1.14,4.78,2.54,4.78s2.54-2.14,2.54-4.78-1.14-4.78-2.54-4.78-2.54,2.14-2.54,4.78Z" style="fill:#263238;"></path><path d="M277.14,221.17c0,2.64,1.14,4.78,2.54,4.78s2.54-2.14,2.54-4.78-1.14-4.78-2.54-4.78-2.54,2.14-2.54,4.78Z" style="fill:#fff; opacity:.8;"></path></g><g><path d="M313.52,235.51v.02c1.34,.13,2.41,2.2,2.41,4.76s-1.07,4.63-2.41,4.76v.02h-33.82v-9.56h33.82Z" style="fill:#263238;"></path><path d="M313.52,235.51v.02c1.34,.13,2.41,2.2,2.41,4.76s-1.07,4.63-2.41,4.76v.02h-33.82v-9.56h33.82Z" style="fill:#fff; opacity:.5;"></path><path d="M277.17,240.29c0,2.64,1.14,4.78,2.54,4.78s2.54-2.14,2.54-4.78-1.14-4.78-2.54-4.78-2.54,2.14-2.54,4.78Z" style="fill:#263238;"></path><path d="M277.17,240.29c0,2.64,1.14,4.78,2.54,4.78s2.54-2.14,2.54-4.78-1.14-4.78-2.54-4.78-2.54,2.14-2.54,4.78Z" style="fill:#fff; opacity:.8;"></path></g><g><path d="M315.91,245.11v.02c1.34,.13,2.41,2.2,2.41,4.76s-1.07,4.63-2.41,4.76v.02h-33.82v-9.56h33.82Z" style="fill:#263238;"></path><path d="M315.91,245.11v.02c1.34,.13,2.41,2.2,2.41,4.76s-1.07,4.63-2.41,4.76v.02h-33.82v-9.56h33.82Z" style="fill:#fff; opacity:.6;"></path><path d="M279.55,249.89c0,2.64,1.14,4.78,2.54,4.78s2.54-2.14,2.54-4.78-1.14-4.78-2.54-4.78-2.54,2.14-2.54,4.78Z" style="fill:#263238;"></path><path d="M279.55,249.89c0,2.64,1.14,4.78,2.54,4.78s2.54-2.14,2.54-4.78-1.14-4.78-2.54-4.78-2.54,2.14-2.54,4.78Z" style="fill:#fff; opacity:.8;"></path></g><g><path d="M321.26,253.86v.02c1.34,.13,2.41,2.2,2.41,4.76s-1.07,4.63-2.41,4.76v.02h-33.82v-9.56h33.82Z" style="fill:#263238;"></path><path d="M321.26,253.86v.02c1.34,.13,2.41,2.2,2.41,4.76s-1.07,4.63-2.41,4.76v.02h-33.82v-9.56h33.82Z" style="fill:#fff; opacity:.5;"></path><path d="M284.91,258.64c0,2.64,1.14,4.78,2.54,4.78s2.54-2.14,2.54-4.78-1.14-4.78-2.54-4.78-2.54,2.14-2.54,4.78Z" style="fill:#263238;"></path><path d="M284.91,258.64c0,2.64,1.14,4.78,2.54,4.78s2.54-2.14,2.54-4.78-1.14-4.78-2.54-4.78-2.54,2.14-2.54,4.78Z" style="fill:#fff; opacity:.8;"></path></g></g></g><g id="freepik--Table--inject-13"><g><g><rect x="26.54" y="427.52" width="454.95" height="16" transform="translate(508.04 871.05) rotate(180)" style="fill:#263238;"></rect><rect x="26.54" y="427.52" width="454.95" height="16" transform="translate(508.04 871.05) rotate(180)" style="fill:#fff; opacity:.2;"></rect></g><g><rect x="59.7" y="416.9" width="110.23" height="10.63" style="fill:#CBA76F;"></rect><path d="M152.14,425.24H59.7v-6.12h92.44c1.51,1.95,1.25,4.01,0,6.12Z" style="fill:#fff;"></path><rect x="157.6" y="416.9" width="12.34" height="10.63" style="opacity:.3;"></rect></g><g><rect x="192.85" y="416.98" width="34.26" height="7.16" style="fill:#CBA76F;"></rect><rect x="190.83" y="414.16" width="38.27" height="2.81" rx="1.01" ry="1.01" style="fill:#CBA76F;"></rect><rect x="190.83" y="414.16" width="38.27" height="2.81" rx="1.01" ry="1.01" style="fill:#263238; isolation:isolate; opacity:.5;"></rect><rect x="190.83" y="423.82" width="38.27" height="2.81" rx="1.01" ry="1.01" style="fill:#CBA76F;"></rect><rect x="190.83" y="423.82" width="38.27" height="2.81" rx="1.01" ry="1.01" style="fill:#263238; isolation:isolate; opacity:.5;"></rect></g><rect x="74.57" y="411.97" width="91.41" height="4.93" style="fill:#CBA76F;"></rect><rect x="74.57" y="411.97" width="91.41" height="4.93" style="fill:#fff; opacity:.8;"></rect><g><rect x="336.71" y="406.64" width="106.79" height="20.68" style="fill:#263238;"></rect><rect x="336.71" y="406.64" width="106.79" height="20.68" style="fill:#fff; opacity:.5;"></rect><rect x="340.09" y="409.22" width="100.3" height="15.47" style="fill:#263238;"></rect></g></g></g><g id="freepik--Speech_Bubble_2--inject-13"><g><g><path d="M390.46,257.32c21.62-2.39,37.21-21.84,34.83-43.46-2.39-21.62-21.84-37.21-43.46-34.83-16.69,1.84-29.75,13.87-33.75,29.2l-10.53,5.39,9.42,8.22c.02,.22,.01,.43,.04,.65,2.38,21.62,21.84,37.21,43.46,34.82Z" style="fill:#CBA76F;"></path><g style="opacity:.7;"><path d="M390.46,257.32c21.62-2.39,37.21-21.84,34.83-43.46-2.39-21.62-21.84-37.21-43.46-34.83-16.69,1.84-29.75,13.87-33.75,29.2l-10.53,5.39,9.42,8.22c.02,.22,.01,.43,.04,.65,2.38,21.62,21.84,37.21,43.46,34.82Z" style="fill:#fff;"></path></g></g><g id="freepik--freepik--legal-balance--inject-2--inject-13"><path d="M376.24,214.18c-1.57,4.07-6.13,6.1-10.21,4.54-2.09-.8-3.74-2.45-4.54-4.54h14.74Z" style="fill:#CBA76F;"></path><path d="M376.24,214.18c-1.57,4.07-6.13,6.1-10.21,4.54-2.09-.8-3.74-2.45-4.54-4.54h14.74Z" style="isolation:isolate; opacity:.5;"></path><path d="M376.24,213.14c-.1,0-.19-.06-.23-.14l-7.17-13.63-7.14,13.63c-.07,.13-.23,.18-.36,.12-.13-.07-.18-.23-.12-.36l7.38-14.07c.09-.13,.26-.17,.39-.09,.03,.02,.06,.05,.09,.09l7.38,14.07c.07,.13,.01,.29-.12,.36l-.09,.03Z" style="fill:#CBA76F;"></path><g style="opacity:.7;"><path d="M376.24,213.14c-.1,0-.19-.06-.23-.14l-7.17-13.63-7.14,13.63c-.07,.13-.23,.18-.36,.12-.13-.07-.18-.23-.12-.36l7.38-14.07c.09-.13,.26-.17,.39-.09,.03,.02,.06,.05,.09,.09l7.38,14.07c.07,.13,.01,.29-.12,.36l-.09,.03Z"></path></g><path d="M368.83,213.82c-.14,0-.27-.1-.27-.25h0v-14.77c0-.14,.12-.26,.26-.26h.01c.14,0,.26,.12,.26,.26v14.73c.01,.14-.09,.27-.23,.28h-.03Z" style="fill:#CBA76F;"></path><g style="opacity:.7;"><path d="M368.83,213.82c-.14,0-.27-.1-.27-.25h0v-14.77c0-.14,.12-.26,.26-.26h.01c.14,0,.26,.12,.26,.26v14.73c.01,.14-.09,.27-.23,.28h-.03Z"></path></g><rect x="360.44" y="212.87" width="16.86" height="1.31" style="fill:#CBA76F;"></rect><path d="M412.74,214.18c-1.58,4.07-6.16,6.1-10.23,4.52-2.08-.8-3.72-2.45-4.52-4.52h14.76Z" style="fill:#CBA76F;"></path><path d="M412.74,214.18c-1.58,4.07-6.16,6.1-10.23,4.52-2.08-.8-3.72-2.45-4.52-4.52h14.76Z" style="isolation:isolate; opacity:.5;"></path><path d="M412.74,213.14c-.1,0-.19-.05-.23-.14l-7.14-13.63-7.14,13.63c-.07,.13-.23,.18-.36,.11-.13-.07-.18-.23-.11-.36h0l7.38-14.07c.08-.13,.25-.17,.37-.09,.04,.02,.07,.06,.09,.09l7.4,14.07c.07,.13,.01,.29-.12,.36l-.14,.03Z" style="fill:#CBA76F;"></path><g style="opacity:.7;"><path d="M412.74,213.14c-.1,0-.19-.05-.23-.14l-7.14-13.63-7.14,13.63c-.07,.13-.23,.18-.36,.11-.13-.07-.18-.23-.11-.36h0l7.38-14.07c.08-.13,.25-.17,.37-.09,.04,.02,.07,.06,.09,.09l7.4,14.07c.07,.13,.01,.29-.12,.36l-.14,.03Z"></path></g><path d="M405.36,213.82c-.15,0-.27-.11-.27-.26v-14.76c0-.15,.13-.26,.27-.26,.14,0,.26,.12,.26,.26v14.73c.01,.14-.09,.27-.23,.28h-.03Z" style="fill:#CBA76F;"></path><g style="opacity:.7;"><path d="M405.36,213.82c-.15,0-.27-.11-.27-.26v-14.76c0-.15,.13-.26,.27-.26,.14,0,.26,.12,.26,.26v14.73c.01,.14-.09,.27-.23,.28h-.03Z"></path></g><rect x="396.93" y="212.87" width="16.86" height="1.31" style="fill:#CBA76F;"></rect><path d="M387.02,194.33v2.71c-2.75,0-5.87,1.56-8.35,2.94-1.62,.88-3.46,1.29-5.3,1.17-2.21-.34-4.31-1.19-6.13-2.48v-1.52c1.76,1.26,3.85,1.99,6.01,2.1,1.97-.1,3.86-.8,5.42-2,2.5-1.65,5.37-2.66,8.35-2.92Z" style="fill:#CBA76F;"></path><path d="M368.83,197.75c0,.86-.7,1.56-1.56,1.56s-1.56-.7-1.56-1.56,.7-1.56,1.56-1.56h0c.85,0,1.55,.68,1.56,1.53,0,0,0,.02,0,.03Z" style="fill:#CBA76F;"></path><path d="M368.83,197.75c0,.86-.7,1.56-1.56,1.56s-1.56-.7-1.56-1.56,.7-1.56,1.56-1.56h0c.85,0,1.55,.68,1.56,1.53,0,0,0,.02,0,.03Z" style="isolation:isolate; opacity:.5;"></path><path d="M387.02,194.33v2.71c2.75,0,5.87,1.56,8.37,2.94,1.62,.88,3.46,1.29,5.3,1.17,2.21-.35,4.3-1.2,6.13-2.48v-1.52c-1.77,1.26-3.86,1.99-6.03,2.1-1.96-.1-3.85-.8-5.4-2-2.5-1.65-5.38-2.65-8.37-2.92Z" style="fill:#CBA76F;"></path><path d="M405.36,197.75c0,.85,.7,1.54,1.56,1.53s1.54-.7,1.53-1.56c0-.85-.7-1.53-1.55-1.53-.85,0-1.55,.69-1.55,1.55h0Z" style="fill:#CBA76F;"></path><path d="M405.36,197.75c0,.85,.7,1.54,1.56,1.53s1.54-.7,1.53-1.56c0-.85-.7-1.53-1.55-1.53-.85,0-1.55,.69-1.55,1.55h0Z" style="isolation:isolate; opacity:.5;"></path><rect x="385.07" y="189.6" width="3.94" height="40.27" style="fill:#CBA76F;"></rect><path d="M390.37,196.18c0,1.84-1.49,3.34-3.34,3.34s-3.34-1.49-3.34-3.34,1.49-3.34,3.34-3.34c1.84,0,3.33,1.48,3.34,3.31,0,0,0,.02,0,.03Z" style="fill:#CBA76F;"></path><path d="M390.37,196.18c0,1.84-1.49,3.34-3.34,3.34s-3.34-1.49-3.34-3.34,1.49-3.34,3.34-3.34c1.84,0,3.33,1.48,3.34,3.31,0,0,0,.02,0,.03Z" style="isolation:isolate; opacity:.5;"></path><path d="M389.61,187.25c0,1.43-1.16,2.6-2.6,2.6s-2.6-1.16-2.6-2.6,1.16-2.6,2.6-2.6,2.6,1.16,2.6,2.6Z" style="fill:#CBA76F;"></path><path d="M389.61,187.25c0,1.43-1.16,2.6-2.6,2.6s-2.6-1.16-2.6-2.6,1.16-2.6,2.6-2.6,2.6,1.16,2.6,2.6Z" style="isolation:isolate; opacity:.5;"></path><path d="M397.82,235.9h-21.59v-4.72c0-.72,.58-1.3,1.3-1.3h18.99c.72,0,1.3,.58,1.3,1.3v4.72Z" style="fill:#CBA76F;"></path><path d="M404.38,240.35h-34.7c-1.23,0-2.23-1-2.23-2.23h0c0-1.23,1-2.23,2.23-2.23h34.7c1.23,0,2.23,1,2.23,2.23h0c0,1.23-1,2.23-2.23,2.23h0Z" style="fill:#CBA76F;"></path><path d="M404.38,240.35h-34.7c-1.23,0-2.23-1-2.23-2.23h0c0-1.23,1-2.23,2.23-2.23h34.7c1.23,0,2.23,1,2.23,2.23h0c0,1.23-1,2.23-2.23,2.23h0Z" style="isolation:isolate; opacity:.5;"></path><rect x="376.24" y="231.42" width="21.59" height="1.47" style="fill:#CBA76F;"></rect><rect x="376.24" y="231.42" width="21.59" height="1.47" style="isolation:isolate; opacity:.5;"></rect><path d="M389.99,189.8c0,.6-.48,1.08-1.08,1.09h-3.75c-.6,0-1.08-.49-1.09-1.09h0c0-.6,.49-1.08,1.09-1.08h3.75c.6,0,1.08,.48,1.08,1.08h0Z" style="fill:#CBA76F;"></path></g></g></g><g id="freepik--Speech_Bubble_1--inject-13"><g><g><path d="M181.86,111.26c-20.05-10.37-44.71-2.53-55.08,17.52-10.37,20.05-2.53,44.71,17.52,55.08,15.48,8.01,33.68,5.12,45.96-5.82l12.2,1.4-3.41-12.51c.11-.2,.24-.38,.34-.59,10.37-20.05,2.53-44.71-17.52-55.08Z" style="fill:#CBA76F;"></path><path d="M126.24,119.64s-.1-.01-.14-.04c-.11-.08-.15-.23-.07-.35,7.43-11.06,20.84-17.99,34.15-17.7,.14,0,.25,.12,.24,.26,0,.14-.12,.25-.26,.24-13.17-.3-26.39,6.56-33.72,17.48-.05,.07-.13,.11-.21,.11Z" style="fill:#CBA76F;"></path><path d="M172.23,103.34s-.06,0-.09-.02c-1.85-.7-3.88-1.02-5.86-.92-.15,.02-.25-.1-.26-.24s.1-.26,.24-.26c2.05-.1,4.15,.22,6.07,.95,.13,.05,.19,.19,.15,.32-.04,.1-.13,.16-.23,.16Z" style="fill:#CBA76F;"></path></g><path d="M159.47,165.61c-1.03-.99-1.55-2.2-1.55-3.63s.51-2.61,1.52-3.57c1.01-.96,2.3-1.43,3.88-1.43s2.87,.48,3.88,1.43c1.01,.96,1.52,2.15,1.52,3.57s-.52,2.63-1.55,3.63c-1.03,.99-2.31,1.49-3.85,1.49s-2.82-.5-3.85-1.49Zm-1.38-38.31h10.46l-1.74,25.69h-6.97l-1.74-25.69Z" style="fill:#fff;"></path></g></g></svg>
